<?xml version="1.0" standalone="no"?>
<!DOCTYPE svg PUBLIC "-//W3C//DTD SVG 20010904//EN"
 "http://www.w3.org/TR/2001/REC-SVG-20010904/DTD/svg10.dtd">
<svg version="1.0" xmlns="http://www.w3.org/2000/svg"
 width="832.000000pt" height="406.000000pt" viewBox="0 0 832.000000 406.000000"
 preserveAspectRatio="xMidYMid meet">

<g transform="translate(0.000000,406.000000) scale(0.100000,-0.100000)"
fill="#000000" stroke="none">
<path d="M0 2030 l0 -2030 4160 0 4160 0 0 2030 0 2030 -4160 0 -4160 0 0
-2030z m7505 1590 c10 -11 16 -20 13 -20 -3 0 -13 9 -23 20 -10 11 -16 20 -13
20 3 0 13 -9 23 -20z m-2075 -34 c0 -2 -8 -10 -17 -17 -16 -13 -17 -12 -4 4
13 16 21 21 21 13z m2121 -23 c13 -16 12 -17 -3 -4 -10 7 -18 15 -18 17 0 8 8
3 21 -13z m-1341 -287 c-25 -23 -37 -19 -26 9 3 8 16 15 28 15 l23 0 -25 -24z
m210 5 c0 -4 -11 -6 -24 -4 -17 4 -27 -1 -35 -16 -15 -27 2 -61 29 -61 25 0
26 27 3 33 -14 4 -12 5 5 6 17 1 22 -4 22 -23 0 -35 -36 -41 -66 -11 -24 24
-24 43 -1 73 11 14 67 17 67 3z m90 -1 c0 -5 -2 -10 -4 -10 -3 0 -8 5 -11 10
-3 6 -1 10 4 10 6 0 11 -4 11 -10z m-37 -30 c-16 -6 -23 -18 -23 -35 0 -14 -4
-25 -10 -25 -5 0 -10 16 -10 35 0 33 2 35 33 34 29 0 30 -1 10 -9z m34 -42
c-2 -13 -4 -5 -4 17 -1 22 1 32 4 23 2 -10 2 -28 0 -40z m88 35 c6 -17 7 -17
16 0 15 26 57 22 65 -7 10 -42 1 -71 -25 -74 -13 -2 -28 2 -35 8 -8 9 -6 11
11 6 23 -7 36 6 38 36 2 22 -20 42 -35 33 -18 -11 -11 -35 13 -45 l22 -9 -22
0 c-12 -1 -27 7 -32 17 -10 16 -10 16 -11 0 0 -29 -18 -21 -22 10 -4 37 -31
35 -39 -3 -6 -29 -7 -29 -8 8 -1 34 1 37 28 37 18 0 31 -6 36 -17z m160 -18
c0 -27 -3 -30 -30 -30 -21 0 -31 5 -33 18 -6 33 6 49 35 45 24 -3 28 -8 28
-33z m-5666 -281 c27 -22 31 -32 31 -75 0 -27 -9 -74 -19 -104 -11 -30 -17
-55 -15 -55 3 0 22 9 44 20 56 29 146 27 191 -3 78 -52 86 -135 30 -306 -17
-52 -31 -95 -31 -97 0 -1 9 0 19 3 49 13 47 -79 -2 -125 -79 -74 -261 -67
-313 13 -28 43 -21 107 25 225 22 57 37 108 33 112 -4 4 -18 1 -30 -7 -15 -11
-33 -54 -62 -144 -44 -142 -47 -159 -25 -167 21 -9 19 -51 -4 -64 -26 -13
-336 -13 -362 0 -28 16 -23 41 15 75 30 27 40 49 86 205 29 96 60 200 70 230
10 30 24 79 31 108 12 49 12 55 -4 63 -18 10 -22 45 -9 66 19 30 97 53 184 53
79 0 89 -2 117 -26z m1304 3 c52 -41 48 -70 -53 -395 -50 -161 -88 -297 -85
-302 9 -15 30 -12 47 8 14 15 38 86 114 342 14 47 34 112 45 144 23 72 24 100
4 116 -28 24 -18 55 28 80 34 20 60 25 139 28 l98 4 35 -35 c39 -39 42 -60 21
-128 -8 -24 -26 -84 -41 -134 -15 -49 -33 -108 -40 -130 -7 -22 -30 -95 -50
-163 -35 -114 -36 -124 -21 -141 22 -24 20 -58 -3 -70 -27 -15 -710 -14 -728
1 -21 17 -15 40 16 73 25 25 45 78 116 309 l86 278 -20 22 c-26 28 -27 48 -2
70 33 30 93 45 181 46 74 0 89 -3 113 -23z m-480 -220 c114 -52 136 -170 48
-258 -30 -30 -50 -40 -113 -54 -43 -9 -102 -15 -133 -13 -61 3 -72 -10 -31
-37 32 -21 86 -21 164 -1 34 9 67 14 72 11 15 -9 12 -62 -4 -94 -18 -34 -79
-89 -115 -102 -135 -52 -303 -18 -374 75 -77 100 -51 295 51 401 39 40 110 80
169 95 69 17 204 6 266 -23z m1324 7 c130 -44 185 -152 148 -293 -31 -120
-103 -204 -221 -258 -104 -48 -295 -43 -382 10 -114 68 -132 239 -40 378 77
115 205 178 360 179 54 0 106 -6 135 -16z m2080 -136 c-2 -29 -3 -6 -3 52 0
58 1 81 3 53 2 -29 2 -77 0 -105z m1678 -198 c13 11 15 7 15 -22 0 -34 -15
-58 -34 -58 -6 1 -24 12 -41 26 -20 18 -24 24 -11 20 19 -7 19 -6 1 14 -11 12
-13 20 -6 20 7 0 9 5 5 13 -5 8 -2 7 9 -2 16 -12 17 -12 11 5 -5 15 -2 15 15
-5 17 -19 24 -21 36 -11z m-995 -8 c1 -16 2 -16 14 1 15 20 28 23 21 5 -4 -9
5 -13 25 -13 22 0 30 5 30 18 0 9 5 17 10 17 6 0 10 -18 10 -40 0 -22 -4 -40
-10 -40 -5 0 -10 6 -11 13 0 10 -2 10 -6 0 -7 -19 -40 -16 -52 5 -10 16 -10
16 -11 0 0 -25 -19 -22 -29 4 l-8 23 -7 -23 c-10 -31 -21 -27 -33 13 -11 35 1
51 14 18 5 -14 8 -13 15 6 9 24 28 20 28 -7z m601 12 c11 -13 9 -14 -14 -9
-20 5 -28 3 -33 -10 -8 -20 10 -40 26 -30 9 6 9 10 -1 16 -10 6 -8 9 9 9 16 0
22 -6 22 -21 0 -17 -5 -20 -32 -17 -26 2 -34 8 -36 26 -6 43 33 67 59 36z
m-159 -39 c-2 -14 -8 -25 -12 -25 -9 0 -18 41 -12 58 7 23 29 -7 24 -33z
m-217 0 c0 -17 -7 -20 -52 -22 -50 -3 -53 -1 -53 21 0 23 3 24 53 23 45 -2 52
-5 52 -22z m95 0 c0 -14 -4 -25 -10 -25 -5 0 -10 9 -10 21 0 11 -4 18 -10 14
-5 -3 -7 -12 -3 -20 3 -8 0 -15 -5 -15 -6 0 -12 10 -15 23 -4 22 -4 22 -15 -3
l-11 -25 0 28 c-1 25 2 27 39 27 36 0 40 -2 40 -25z m58 -3 c3 -18 -1 -22 -22
-22 -19 0 -26 5 -26 18 0 39 43 43 48 4z m120 0 c3 -18 -1 -22 -22 -22 -19 0
-26 5 -26 18 0 39 43 43 48 4z m171 1 c-2 -24 -2 -25 -6 -5 -2 12 -9 22 -14
22 -5 0 -14 -10 -19 -22 -8 -22 -9 -22 -9 5 -1 22 3 27 24 27 21 0 25 -4 24
-27z m131 -1 c0 -15 -4 -33 -9 -41 -13 -20 -41 -6 -42 21 0 13 -3 17 -6 11 -8
-20 -21 -15 -26 10 l-4 22 -8 -22 c-10 -30 -25 -29 -25 1 0 23 3 24 60 24 58
0 60 -1 60 -26z m63 16 c7 -23 -4 -38 -29 -38 -17 0 -24 6 -24 18 0 10 3 22 7
25 11 12 41 8 46 -5z m-1546 -265 c-1 -43 -3 -8 -3 77 0 85 2 120 3 78 2 -43
2 -113 0 -155z m2320 -280 c-1 -71 -3 -13 -3 127 0 140 2 198 3 128 2 -71 2
-185 0 -255z m-2059 229 c2 -18 -1 -32 -7 -32 -5 0 -16 -3 -25 -6 -13 -5 -16
1 -16 29 0 55 43 63 48 9z m182 -3 c0 -28 -2 -29 -50 -29 -50 0 -69 17 -30 27
11 3 20 11 20 18 0 16 19 23 43 17 11 -3 17 -14 17 -33z m280 7 c0 -25 -5 -35
-19 -39 -11 -3 -22 -2 -25 1 -11 10 -6 60 7 65 29 12 37 6 37 -27z m325 15
c-3 -6 -14 -11 -23 -11 -15 1 -15 2 2 15 21 16 32 13 21 -4z m625 -16 c0 -28
-4 -35 -19 -35 -10 0 -33 -3 -50 -6 -30 -6 -31 -5 -31 29 0 31 3 36 28 40 69
10 72 9 72 -28z m440 0 c0 -24 -5 -35 -14 -35 -8 0 -21 -3 -30 -6 -13 -5 -16
1 -16 29 0 25 5 37 18 40 37 10 42 7 42 -28z m-1213 11 c0 -8 -6 -12 -13 -9
-7 2 -11 -3 -11 -14 2 -14 -6 -19 -36 -21 -35 -3 -38 -1 -35 20 3 24 24 35 69
37 16 1 26 -4 26 -13z m92 5 c9 -6 10 -11 2 -15 -6 -4 -18 0 -27 8 -12 12 -12
16 -2 16 7 0 19 -4 27 -9z m218 -18 c5 -13 -79 -29 -96 -18 -20 12 -11 24 22
28 48 6 70 3 74 -10z m112 8 c9 -6 10 -11 2 -15 -6 -4 -11 -2 -11 3 0 6 -5 11
-11 11 -6 0 -8 -9 -4 -20 7 -21 -9 -28 -20 -10 -17 28 14 50 44 31z m501 -9
c0 -13 -9 -19 -35 -20 -24 -2 -35 2 -35 11 0 20 10 27 42 27 20 0 28 -5 28
-18z m-83 -7 c0 -8 -4 -15 -9 -15 -4 0 -8 7 -8 15 0 8 4 15 8 15 5 0 9 -7 9
-15z m-698 -9 c10 -12 8 -13 -8 -9 -12 3 -21 9 -21 14 0 14 16 11 29 -5z m-49
-6 c-20 -13 -43 -13 -35 0 3 6 16 10 28 10 18 0 19 -2 7 -10z m524 1 c6 -10
-84 -22 -98 -13 -5 3 -1 9 10 13 27 11 82 11 88 0z m-764 -126 c0 -34 -1 -35
-39 -35 -22 0 -42 5 -44 13 -3 7 -6 4 -6 -6 -2 -30 -21 -8 -21 23 0 30 10 35
83 39 25 1 27 -2 27 -34z m566 15 c0 -11 -6 -20 -13 -20 -17 0 -17 27 0 33 6
3 12 6 12 6 1 1 1 -8 1 -19z m196 -9 c-4 -30 -23 -41 -69 -41 -28 0 -30 16 -3
23 12 3 20 14 20 26 0 16 6 21 28 21 26 0 28 -3 24 -29z m438 -6 c0 -28 -4
-35 -20 -35 -15 0 -20 7 -20 28 0 32 7 42 27 42 8 0 13 -13 13 -35z m-1543 9
c1 -5 -1 -15 -6 -23 -8 -12 -12 -12 -25 -2 -12 10 -13 16 -3 26 13 15 29 15
34 -1z m427 -26 c-24 -26 -34 -22 -34 12 0 28 1 29 25 18 24 -11 24 -12 9 -30z
m216 34 c0 -5 -22 -9 -50 -11 -30 -1 -50 2 -50 9 0 5 22 10 50 10 28 0 50 -4
50 -8z m570 -7 c0 -8 -4 -15 -10 -15 -5 0 -10 7 -10 15 0 8 5 15 10 15 6 0 10
-7 10 -15z m120 5 c0 -5 -5 -10 -11 -10 -5 0 -7 5 -4 10 3 6 8 10 11 10 2 0 4
-4 4 -10z m-1450 -15 c0 -12 -13 -15 -55 -15 -87 0 -67 25 23 29 22 1 32 -3
32 -14z m253 -16 c-17 -17 -37 -1 -22 17 8 10 15 12 23 4 7 -7 7 -13 -1 -21z
m637 27 c0 -16 -14 -36 -26 -36 -14 0 -19 22 -7 33 7 8 33 10 33 3z m950 -11
c0 -10 -11 -15 -35 -16 -19 -1 -41 -2 -47 -3 -7 -1 -14 6 -16 15 -2 12 8 16
48 18 39 2 50 -1 50 -14z m-4420 -10 c35 -18 50 -43 50 -83 0 -17 -36 -146
-80 -288 -44 -142 -80 -264 -80 -270 0 -6 7 -17 15 -24 19 -16 19 -35 -1 -54
-13 -13 -43 -16 -173 -16 -157 0 -181 5 -181 36 0 7 13 26 30 41 22 21 38 56
65 142 19 63 33 116 30 119 -3 3 -5 0 -5 -6 0 -21 -63 -52 -103 -52 -39 0 -78
28 -104 75 -7 11 -14 17 -17 14 -3 -3 -24 -65 -47 -139 l-41 -133 26 -24 c30
-27 30 -27 16 -54 -10 -18 -23 -19 -183 -19 -176 0 -197 4 -197 39 0 8 14 26
30 40 25 22 38 51 75 171 50 161 52 175 29 184 -10 4 -14 15 -12 33 7 66 198
106 266 56 l29 -22 48 25 c55 27 82 30 129 10 49 -20 76 -60 77 -115 0 -45 1
-45 29 44 43 133 44 143 24 181 -17 32 -17 34 1 54 40 44 196 66 255 35z m617
-5 c61 -37 58 -61 -40 -376 -61 -193 -62 -200 -41 -196 54 10 34 -85 -27 -130
-57 -43 -184 -42 -224 2 -17 19 -18 19 -44 -1 -60 -44 -160 -43 -222 3 -83 61
-92 225 -21 363 25 49 100 121 147 141 44 18 126 18 170 0 l33 -14 12 49 c11
43 10 52 -4 68 -9 10 -16 24 -16 33 0 62 202 104 277 58z m3499 9 c10 -17 -8
-27 -56 -31 -35 -2 -45 0 -48 14 -2 11 5 18 20 21 44 8 77 7 84 -4z m-772 -8
c7 -11 -82 -23 -98 -14 -6 5 4 10 24 14 54 10 68 10 74 0z m246 -11 c0 -5 -4
-10 -10 -10 -5 0 -10 5 -10 10 0 6 5 10 10 10 6 0 10 -4 10 -10z m-1303 -237
c-1 -43 -3 -8 -3 77 0 85 2 120 3 78 2 -43 2 -113 0 -155z m737 151 c27 -10
18 -31 -15 -38 -57 -11 -79 -8 -79 13 0 15 8 21 38 24 20 2 38 4 39 5 1 1 8
-1 17 -4z m936 -15 c0 -5 -6 -9 -12 -9 -7 0 -30 -3 -50 -6 -31 -5 -38 -3 -38
9 0 11 11 17 38 19 43 4 62 0 62 -13z m460 0 c0 -5 -6 -9 -14 -9 -8 0 -21 -3
-30 -6 -10 -4 -16 -1 -16 9 0 16 26 26 48 19 6 -2 12 -8 12 -13z m-1842 -16
c3 -17 -2 -23 -16 -23 -11 0 -33 -3 -51 -6 -24 -5 -32 -3 -37 11 -10 25 23 47
66 43 28 -2 36 -8 38 -25z m123 7 c16 0 29 -4 29 -10 0 -5 -11 -10 -25 -10
-13 0 -28 -7 -33 -17 -9 -15 -12 -14 -33 5 -17 17 -19 22 -7 22 9 0 19 8 23
18 5 11 9 13 12 5 3 -7 18 -13 34 -13z m164 3 c10 -27 -30 -56 -56 -40 -21 13
-25 27 -8 27 5 0 8 4 5 9 -4 5 0 12 6 14 26 11 46 7 53 -10z m318 10 c-7 -2
-13 -15 -13 -28 0 -21 -17 -35 -41 -35 -5 0 -9 16 -9 35 0 34 1 35 38 34 20 0
31 -3 25 -6z m277 -18 c16 3 31 2 35 -4 4 -7 -7 -11 -29 -11 -25 0 -36 -4 -36
-15 0 -12 -3 -12 -20 3 -17 14 -18 18 -5 20 8 2 16 11 16 20 1 15 2 14 6 -1 4
-14 11 -17 33 -12z m270 -10 c0 -24 -5 -35 -15 -35 -10 0 -15 11 -15 35 0 24
5 35 15 35 10 0 15 -11 15 -35z m385 17 c7 -19 -3 -32 -25 -32 -10 0 -20 -5
-22 -11 -2 -6 -14 -8 -31 -4 -32 8 -39 45 -8 45 11 0 23 4 26 10 9 14 54 8 60
-8z m235 3 c0 -8 -7 -15 -15 -15 -8 0 -15 7 -15 15 0 8 7 15 15 15 8 0 15 -7
15 -15z m-1044 -5 c24 0 16 -18 -16 -34 -26 -12 -30 -12 -30 0 0 8 11 15 28
15 l27 2 -27 4 c-16 2 -28 9 -28 15 0 5 7 7 16 4 9 -3 22 -6 30 -6z m319 -20
c31 0 33 -16 3 -24 -36 -9 -78 -7 -78 4 0 6 4 10 9 10 5 0 13 10 17 22 6 19 7
19 16 5 5 -10 20 -17 33 -17z m152 -17 c-11 -10 -27 8 -27 30 l0 21 16 -22 c9
-13 14 -26 11 -29z m643 5 c0 -7 -13 -13 -30 -14 -19 -1 -30 4 -30 12 0 9 11
14 30 14 17 0 30 -5 30 -12z m-70 -8 c0 -5 -7 -10 -15 -10 -8 0 -15 5 -15 10
0 6 7 10 15 10 8 0 15 -4 15 -10z m-6510 -42 c31 -16 51 -35 64 -61 20 -42 19
-56 -25 -210 -22 -77 -19 -109 7 -73 13 18 21 42 58 169 16 55 16 60 1 77 -57
63 78 143 188 110 47 -14 97 -60 97 -89 0 -31 17 -26 23 7 12 58 90 105 145
88 53 -17 99 -77 104 -133 l2 -28 46 46 c81 81 216 128 333 114 201 -22 279
-174 187 -362 -34 -69 -91 -122 -177 -164 -42 -21 -62 -24 -163 -24 -104 0
-120 3 -165 26 -59 30 -102 87 -113 148 l-7 43 -33 -45 c-37 -53 -84 -92 -164
-136 -99 -56 -248 -54 -311 5 -32 30 -31 30 -71 -1 -62 -47 -181 -52 -239 -9
-57 42 -65 125 -24 259 37 119 39 131 22 145 -37 31 -8 81 62 106 56 19 103
17 153 -8z m4860 -72 c0 -22 -6 -36 -16 -40 -23 -9 -34 2 -34 34 0 26 8 33 43
39 4 0 7 -14 7 -33z m310 -1 c0 -19 -4 -35 -9 -35 -5 0 -16 -3 -25 -6 -13 -5
-16 1 -16 29 0 34 6 40 43 46 4 0 7 -15 7 -34z m166 20 c24 -24 13 -50 -19
-48 -15 1 -25 -2 -22 -8 4 -5 -4 -9 -17 -9 -20 0 -24 6 -26 36 -3 36 -2 37 28
30 19 -3 29 -2 25 4 -10 16 15 12 31 -5z m164 -4 c0 -14 -9 -20 -37 -23 -45
-6 -63 -1 -63 17 0 12 19 18 83 23 11 1 17 -5 17 -17z m308 -17 c3 -30 1 -32
-37 -36 -54 -5 -61 -1 -61 32 0 25 4 29 33 33 55 7 62 4 65 -29z m160 19 c2
-9 -8 -13 -32 -13 -22 0 -36 -5 -36 -12 0 -10 -2 -10 -9 0 -4 8 -12 13 -17 12
-5 -1 -10 3 -12 9 -2 5 12 12 30 14 50 6 71 3 76 -10z m152 -3 c0 -16 -7 -20
-31 -20 -17 0 -40 5 -52 12 -22 12 -21 12 8 19 58 13 75 10 75 -11z m150 6
c-3 -6 -17 -11 -32 -13 -15 -1 -31 -3 -35 -4 -18 -3 -33 2 -33 10 0 6 15 12
33 14 47 6 73 3 67 -7z m305 -20 c0 -25 -5 -31 -34 -38 -46 -12 -63 -4 -59 29
2 19 11 29 28 34 47 14 65 7 65 -25z m-1862 13 l32 -1 -30 -8 c-29 -7 -29 -8
-5 -10 21 -2 22 -3 5 -7 -11 -3 -28 -12 -37 -20 -21 -18 -45 -8 -28 12 8 9 8
15 0 20 -15 9 -1 27 17 21 8 -3 29 -7 46 -7z m897 -2 c0 -8 10 -13 22 -13 14
1 24 -6 26 -16 3 -14 -3 -18 -27 -18 -17 0 -31 4 -31 9 0 5 -10 11 -22 13 -13
2 -24 11 -26 21 -3 13 3 17 27 17 19 0 31 -5 31 -13z m-565 -8 c9 -14 7 -15
-42 -22 -32 -4 -43 -2 -43 8 0 22 73 34 85 14z m-185 -134 c0 18 1 18 14 -1
13 -17 13 -19 -2 -23 -9 -2 -22 -11 -29 -20 -8 -10 -12 -12 -13 -3 0 6 -9 12
-20 12 -22 0 -23 1 -14 24 5 13 9 14 20 5 11 -9 14 -8 14 7 1 18 1 18 15 0 14
-19 15 -19 15 -1z m758 4 c-10 -5 -18 -21 -18 -34 0 -14 -6 -25 -13 -25 -22 0
-15 54 8 62 31 10 42 8 23 -3z m302 -29 c0 -29 -19 -44 -45 -34 -8 4 -15 19
-15 34 0 22 5 29 23 32 31 6 37 1 37 -32z m200 25 c0 -10 -11 -15 -32 -16 -28
0 -30 -2 -13 -9 l20 -9 -20 0 c-19 0 -55 20 -55 32 0 7 33 14 73 16 18 1 27
-4 27 -14z m125 5 c-3 -5 -16 -10 -28 -9 -21 0 -21 1 -2 9 28 12 37 12 30 0z
m335 1 c0 -5 -10 -11 -22 -15 -35 -9 -78 -7 -78 3 0 9 28 16 78 20 12 0 22 -3
22 -8z m-1417 -15 c7 -17 -18 -40 -33 -31 -7 4 -7 12 0 26 13 23 26 25 33 5z
m187 5 c0 -6 -22 -11 -50 -11 -65 0 -65 14 0 18 30 2 50 -1 50 -7z m-302 -18
c2 -8 -5 -13 -15 -13 -11 0 -24 -5 -31 -12 -13 -13 -62 4 -62 21 0 21 101 24
108 4z m459 1 c2 -7 -10 -13 -29 -16 -27 -3 -34 0 -34 15 0 14 7 17 30 15 16
-2 31 -8 33 -14z m133 3 c0 -8 -7 -14 -15 -14 -8 0 -15 6 -15 14 0 7 7 13 15
13 8 0 15 -6 15 -13z m170 -2 c0 -14 -8 -17 -67 -19 -30 -1 -43 20 -16 27 42
11 83 7 83 -8z m620 1 c0 -14 -84 -31 -101 -20 -16 10 -10 23 14 27 50 10 87
7 87 -7z m-1730 -10 c0 -16 -18 -31 -27 -22 -8 8 5 36 17 36 5 0 10 -6 10 -14z
m650 -6 c0 -5 -6 -10 -12 -10 -7 0 -30 -3 -50 -6 -24 -4 -38 -3 -38 4 0 10 27
17 78 21 12 0 22 -3 22 -9z m925 -9 c-6 -5 -26 -10 -45 -11 -50 -3 -60 -1 -60
10 0 6 26 10 57 10 35 0 53 -4 48 -9z m-767 -117 c3 -29 0 -32 -35 -37 -69
-12 -73 -10 -73 27 0 33 2 35 38 39 61 6 67 4 70 -29z m-638 -4 c0 -37 -9 -37
-38 1 l-24 29 31 0 c28 0 31 -3 31 -30z m250 15 c11 -13 10 -14 -4 -9 -9 3
-16 10 -16 15 0 13 6 11 20 -6z m58 -16 c15 0 21 -3 14 -6 -6 -2 -10 -9 -6
-14 8 -13 -10 -11 -24 3 -9 9 -12 8 -13 -7 0 -11 -3 -14 -6 -8 -3 9 -10 10
-22 4 -13 -7 -17 -5 -18 11 -1 14 3 18 13 14 11 -4 18 1 22 16 5 19 7 20 10 6
2 -12 13 -18 30 -19z m7 21 c-3 -5 -11 -10 -16 -10 -6 0 -7 5 -4 10 3 6 11 10
16 10 6 0 7 -4 4 -10z m132 -5 c-4 -8 -2 -17 3 -20 29 -18 -30 -42 -60 -24
-12 6 -10 8 8 9 16 0 23 5 21 18 -2 27 0 32 17 32 10 0 14 -6 11 -15z m311
-13 c4 -25 -23 -41 -40 -24 -7 7 -6 17 2 32 14 26 34 22 38 -8z m318 4 c-2
-32 -6 -35 -44 -40 -30 -3 -32 -1 -32 28 0 30 2 32 38 34 36 2 39 1 38 -22z
m604 14 c0 -5 -7 -10 -15 -10 -8 0 -15 -5 -15 -11 0 -6 7 -8 16 -5 11 4 14 1
12 -11 -2 -10 -11 -19 -21 -21 -14 -3 -17 4 -17 32 0 29 4 36 20 36 11 0 20
-4 20 -10z m-796 -15 c6 -17 4 -18 -18 -9 -20 8 -21 24 -2 24 8 0 16 -7 20
-15z m629 -5 c-3 -11 -9 -17 -15 -14 -5 3 -4 12 3 20 16 19 18 18 12 -6z
m-1649 1 c7 -11 -82 -23 -98 -14 -6 5 1 10 19 14 45 10 73 10 79 0z m1319 2
c-7 -2 -19 -2 -25 0 -7 3 -2 5 12 5 14 0 19 -2 13 -5z m217 -6 c0 -9 -16 -14
-50 -16 -50 -2 -70 14 -27 22 47 9 77 7 77 -6z m-170 -11 c0 -11 -19 -15 -25
-6 -3 5 1 10 9 10 9 0 16 -2 16 -4z m-47 -13 c-7 -2 -19 -2 -25 0 -7 3 -2 5
12 5 14 0 19 -2 13 -5z m-1165 -100 c2 -7 -4 -13 -13 -13 -9 0 -14 -4 -10 -9
9 -16 -32 -23 -54 -9 -31 19 -26 36 12 41 46 6 60 4 65 -10z m130 -49 c-3 -2
-15 -5 -29 -6 -20 -3 -24 2 -27 29 -3 28 0 32 25 35 24 3 28 -1 31 -25 2 -16
2 -31 0 -33z m318 44 c-16 -9 -16 -11 0 -29 17 -19 16 -19 -14 -13 -20 4 -38
2 -47 -6 -9 -7 -18 -10 -22 -6 -4 3 2 13 13 20 18 14 18 15 2 21 -29 11 -21
22 18 23 20 1 39 4 42 6 3 3 9 3 15 -1 5 -3 2 -10 -7 -15z m161 5 c4 -12 -71
-28 -87 -18 -20 13 -9 24 28 28 47 5 55 3 59 -10z m470 2 c7 -20 6 -21 -34
-28 -28 -6 -33 -4 -33 13 0 28 57 41 67 15z m125 -35 c-6 -16 -22 -30 -34 -30
-5 0 -8 15 -8 34 0 25 5 36 18 38 19 4 32 -19 24 -42z m178 15 c0 -24 -5 -35
-15 -35 -10 0 -15 11 -15 35 0 24 5 35 15 35 10 0 15 -11 15 -35z m255 5 c-16
-16 -34 -30 -39 -30 -6 0 -5 4 3 9 12 8 12 12 2 25 -10 12 -7 15 21 19 18 2
35 5 37 5 3 1 -8 -11 -24 -28z m-1395 -16 c0 -28 -3 -35 -17 -32 -12 2 -19 14
-21 36 -3 27 0 32 17 32 17 0 21 -6 21 -36z m508 30 c49 -14 15 -44 -50 -44
-18 0 -28 5 -28 15 0 8 7 15 16 15 8 0 12 5 9 10 -7 11 18 13 53 4z m-901 -20
c2 -7 -15 -14 -42 -18 -45 -7 -65 -3 -65 14 0 20 101 23 107 4z m1073 -4 c0
-34 -92 -42 -98 -8 -3 18 14 25 66 27 26 1 32 -3 32 -19z m755 -4 c-9 -13 -26
-26 -38 -29 -19 -5 -17 -1 11 23 39 36 48 38 27 6z m-335 4 c0 -5 -5 -10 -11
-10 -5 0 -7 5 -4 10 3 6 8 10 11 10 2 0 4 -4 4 -10z m-730 -15 c0 -11 -12 -15
-44 -15 -53 0 -70 17 -24 23 63 7 68 7 68 -8z m924 6 c7 -10 -74 -21 -89 -12
-5 3 6 9 25 12 54 10 58 10 64 0z m-1074 -115 c0 -14 -56 -33 -67 -22 -3 3 -3
12 0 21 8 20 67 21 67 1z m740 -21 c0 -28 -4 -35 -20 -35 -16 0 -20 7 -20 35
0 28 4 35 20 35 16 0 20 -7 20 -35z m138 13 c3 -17 -31 -34 -48 -23 -13 8 -13
35 -1 35 5 0 12 -8 14 -17 3 -13 5 -12 6 5 1 26 24 25 29 0z m322 -13 c0 -28
-4 -35 -20 -35 -15 0 -20 7 -20 28 0 32 7 42 27 42 8 0 13 -13 13 -35z m-1853
19 c-3 -3 -12 -4 -19 -1 -8 3 -5 6 6 6 11 1 17 -2 13 -5z m316 -26 c-34 -36
-54 -37 -22 -1 24 26 11 24 -26 -6 -15 -12 -14 -9 3 10 14 16 33 26 47 25 l24
-1 -26 -27z m617 7 c0 -18 -5 -25 -19 -25 -11 0 -21 6 -24 13 -7 20 4 37 24
37 14 0 19 -7 19 -25z m143 7 c10 -10 13 -23 8 -30 -6 -10 -15 -7 -37 13 l-29
27 27 -16 c37 -22 48 -20 19 4 -13 11 -19 20 -14 20 6 0 17 -8 26 -18z m154
12 c-3 -3 -12 -4 -19 -1 -8 3 -5 6 6 6 11 1 17 -2 13 -5z m473 -19 c0 -18 -5
-25 -19 -25 -11 0 -21 6 -24 13 -7 20 4 37 24 37 14 0 19 -7 19 -25z m-1240 1
c0 -16 -18 -31 -27 -22 -8 8 5 36 17 36 5 0 10 -6 10 -14z m-423 -12 c4 -12
-82 -28 -98 -18 -17 10 -9 23 19 27 42 7 75 3 79 -9z m150 1 c3 -11 -9 -15
-61 -18 -38 -3 -46 20 -9 26 41 6 66 3 70 -8z m583 -15 c-20 -13 -53 -13 -45
0 3 6 18 10 33 10 21 0 24 -2 12 -10z m-580 -100 c0 -5 -6 -10 -12 -10 -7 0
-30 -3 -50 -6 -38 -7 -56 10 -20 19 33 9 82 7 82 -3z m136 -5 c20 -20 2 -40
-47 -50 l-34 -8 24 20 25 20 -25 8 c-23 8 -23 8 -4 16 31 12 45 10 61 -6z
m474 6 c0 -11 -35 -21 -72 -21 -34 0 -37 17 -5 23 41 8 77 7 77 -2z m128 -23
c-2 -22 -9 -34 -20 -36 -15 -3 -18 4 -18 32 0 30 4 36 21 36 17 0 20 -5 17
-32z m327 19 c28 -21 9 -37 -46 -37 -53 0 -61 10 -27 34 28 20 48 20 73 3z
m455 -17 c0 -35 -20 -32 -45 6 -15 24 -15 24 15 24 27 0 30 -3 30 -30z m170
18 c0 -8 -18 -14 -50 -16 -48 -3 -70 11 -32 21 37 10 82 7 82 -5z m-490 -8 c0
-5 -6 -10 -12 -10 -9 0 -8 -4 2 -11 12 -9 12 -10 -3 -5 -10 3 -23 6 -28 6 -16
0 -10 18 9 23 29 8 32 7 32 -3z m187 -5 c8 -22 3 -25 -56 -32 -47 -5 -51 -4
-51 15 0 21 16 28 73 31 17 0 30 -5 34 -14z m-962 -4 c7 -12 -12 -24 -25 -16
-11 7 -4 25 10 25 5 0 11 -4 15 -9z m465 -11 c9 -18 8 -20 -15 -20 -23 0 -24
2 -15 20 6 11 13 20 15 20 2 0 9 -9 15 -20z m-1040 -9 c0 -11 -88 -27 -97 -17
-8 8 36 25 70 25 15 1 27 -3 27 -8z m455 -1 c3 -5 0 -10 -7 -10 -7 0 -30 -3
-50 -6 -24 -4 -38 -3 -38 4 0 10 23 16 72 21 9 0 20 -3 23 -9z m305 1 c0 -11
-75 -25 -90 -16 -21 13 -9 20 40 23 28 2 50 -1 50 -7z m1080 0 c0 -11 -75 -25
-90 -16 -22 13 -8 22 40 24 28 1 50 -2 50 -8z m-1480 -115 c-5 -13 -6 -27 -2
-32 4 -4 -1 -5 -10 -1 -9 3 -19 0 -22 -8 -3 -8 -13 -11 -25 -8 -15 4 -21 13
-21 34 0 25 4 28 38 32 20 2 40 4 44 5 4 1 3 -9 -2 -22z m948 -12 c3 -28 0
-32 -27 -36 -27 -4 -30 -2 -33 29 -4 34 4 43 37 40 15 -1 21 -10 23 -33z m150
19 c2 -7 -5 -13 -15 -13 -17 -1 -17 -1 1 -15 26 -19 20 -23 -38 -27 -33 -2
-50 1 -53 10 -3 6 3 12 14 12 17 1 17 1 1 11 -28 16 -21 27 20 32 53 5 65 4
70 -10z m-673 -18 c-16 -13 -34 -24 -40 -24 -5 0 -4 3 3 6 6 2 9 9 6 15 -8 13
14 28 41 28 17 0 16 -3 -10 -25z m-95 -4 c0 -11 -9 -21 -22 -25 -36 -9 -78 -7
-78 4 0 6 0 13 -1 18 0 9 37 20 74 21 20 1 27 -4 27 -18z m134 -6 c-9 -14 -24
-25 -33 -25 -12 1 -9 7 12 25 36 32 42 32 21 0z m126 15 c8 -5 11 -13 6 -17
-5 -4 -11 -2 -13 5 -3 6 -9 9 -14 6 -6 -3 -5 -11 2 -20 9 -11 8 -14 -4 -14
-17 0 -27 18 -19 38 5 14 21 15 42 2z m200 -4 c0 -13 -41 -26 -81 -26 -30 0
-22 28 9 33 56 8 72 7 72 -7z m-652 -19 c2 -12 -3 -17 -17 -17 -23 0 -24 1
-15 25 8 19 28 15 32 -8z m-5671 -274 c3 -7 -4 -10 -19 -7 l-23 5 23 -12 c13
-7 21 -20 20 -28 -4 -20 -40 -21 -46 -1 -4 13 -3 13 10 2 10 -8 19 -9 22 -3 4
5 -3 12 -14 16 -31 10 -24 49 9 43 8 -2 16 -8 18 -15z m820 -45 c-2 -13 -4 -3
-4 22 0 25 2 35 4 23 2 -13 2 -33 0 -45z m435 5 c-7 -36 -12 -27 -11 20 0 30
3 36 8 23 4 -11 6 -30 3 -43z m125 41 c2 -6 -7 -10 -19 -10 -14 1 -24 -6 -26
-16 -2 -13 3 -18 20 -18 18 0 20 2 8 10 -13 8 -12 10 3 10 21 0 23 -26 2 -34
-38 -14 -62 33 -33 62 14 14 40 12 45 -4z m86 -11 c16 1 23 -4 25 -20 2 -13
-1 -23 -7 -23 -6 0 -8 6 -5 14 3 8 1 17 -5 21 -7 3 -11 -2 -11 -14 0 -12 -7
-21 -15 -21 -11 0 -15 10 -14 38 1 20 3 29 6 20 3 -11 13 -17 26 -15z m251 5
c14 -23 -3 -53 -30 -53 -20 0 -31 33 -20 61 7 19 35 14 50 -8z m448 -35 c-7
-36 -12 -27 -11 20 0 30 3 36 8 23 4 -11 6 -30 3 -43z m345 5 c-2 -13 -4 -5
-4 17 -1 22 1 32 4 23 2 -10 2 -28 0 -40z m581 34 c2 -7 -2 -10 -12 -6 -25 9
-19 -2 10 -21 27 -17 27 -17 22 9 -3 14 -1 26 3 26 5 0 9 -13 9 -29 0 -23 -5
-30 -27 -34 -31 -6 -53 1 -53 15 0 6 6 6 14 -1 10 -9 16 -9 21 -1 4 7 -2 14
-14 17 -21 5 -28 23 -14 37 10 10 36 3 41 -12z m111 -24 c-1 -35 -2 -38 -8
-18 l-7 25 -7 -25 -7 -25 -14 24 c-13 23 -14 23 -19 5 -3 -12 -5 -7 -6 14 -1
36 14 43 25 10 6 -21 7 -21 21 5 19 37 23 34 22 -15z m331 -52 c-8 -8 -9 -6
-5 7 4 9 3 17 -3 17 -6 0 -12 10 -15 23 -4 22 -4 22 -15 -3 -11 -25 -11 -25
-11 -2 -1 26 27 41 40 21 6 -10 9 -8 11 11 1 14 3 5 5 -19 3 -24 -1 -49 -7
-55z m-3500 43 c0 -18 -4 -28 -10 -24 -5 3 -10 20 -10 36 0 18 4 28 10 24 6
-3 10 -20 10 -36z m471 28 c-1 -4 -1 -19 -1 -33 0 -22 -3 -24 -14 -15 -11 9
-15 9 -18 0 -7 -22 -40 -1 -36 23 2 17 9 23 26 22 12 0 22 4 22 9 0 5 5 7 11
5 6 -2 10 -7 10 -11z m100 -50 c-15 -15 -40 9 -34 33 8 29 37 30 41 2 2 -14
-1 -29 -7 -35z m318 42 c11 15 12 14 7 -1 -3 -10 -1 -18 4 -18 6 0 10 8 10 17
0 9 3 14 6 10 11 -11 -7 -49 -21 -43 -8 3 -16 0 -18 -7 -3 -7 -9 -1 -15 13 -7
16 -11 19 -11 9 -1 -20 -30 -34 -44 -20 -14 14 -3 46 16 45 9 -1 17 3 17 10 1
6 9 1 19 -10 16 -20 19 -20 30 -5z m111 -8 c0 -28 -22 -47 -41 -35 -15 9 -10
42 9 53 27 16 32 13 32 -18z m200 -7 c0 -21 -4 -33 -10 -29 -17 10 -11 65 7
65 2 0 3 -16 3 -36z m695 9 c-5 -26 -5 -27 5 -5 12 27 43 26 48 -2 5 -26 -11
-38 -42 -30 -21 5 -26 12 -26 35 0 16 5 29 10 29 6 0 8 -12 5 -27z m153 -34
c-20 -13 -33 -5 -33 22 0 17 5 24 18 23 9 -1 18 3 18 10 1 6 4 -2 6 -18 3 -17
-1 -32 -9 -37z m62 25 c0 -21 -4 -33 -10 -29 -17 10 -11 65 7 65 2 0 3 -16 3
-36z m537 21 c13 0 23 3 23 7 0 4 5 8 10 8 6 0 10 -13 10 -30 0 -23 -5 -30
-20 -31 -11 -1 -25 -2 -32 -3 -6 -1 -13 5 -15 12 -3 6 3 12 12 12 10 0 13 -5
9 -12 -4 -7 -3 -8 4 -4 17 10 4 32 -18 32 -13 0 -20 -7 -21 -21 -1 -20 -1 -20
-7 0 -4 11 -16 21 -27 22 -20 1 -20 1 -1 -13 13 -9 16 -18 10 -24 -15 -15 -51
0 -59 23 l-8 22 -4 -22 c-5 -28 -23 -30 -23 -3 0 22 -1 22 57 24 23 1 45 5 49
9 4 3 12 4 17 0 6 -4 21 -7 34 -8z m60 -32 c-3 -10 -5 -2 -5 17 0 19 2 27 5
18 2 -10 2 -26 0 -35z m642 -13 c-18 -12 -39 0 -39 21 0 11 10 23 23 28 19 7
22 5 25 -17 2 -14 -2 -28 -9 -32z m-3297 21 c3 -23 1 -28 -16 -27 -10 1 -21 7
-24 15 -3 10 0 12 12 8 10 -4 16 -1 16 8 0 9 -6 12 -17 8 -11 -4 -14 -3 -9 5
13 22 34 12 38 -17z m45 17 c10 12 9 6 -2 -22 -8 -21 -15 -40 -15 -42 0 -2 -3
-4 -7 -4 -5 0 -9 19 -9 43 -2 33 0 39 9 25 10 -15 12 -15 24 0z m78 2 c3 -6
-1 -7 -9 -4 -11 4 -16 0 -16 -11 0 -12 5 -15 16 -11 10 4 14 1 12 -6 -7 -19
-27 -21 -34 -4 -12 31 15 62 31 36z m50 0 c4 -6 1 -9 -6 -8 -6 2 -14 -3 -16
-9 -7 -20 14 -15 30 7 15 22 27 17 27 -13 0 -12 -5 -17 -14 -14 -7 3 -18 1
-24 -5 -14 -14 -32 -1 -32 21 0 29 22 42 35 21z m63 -18 c5 -31 -15 -27 -21 3
-3 16 0 24 7 22 6 -2 12 -13 14 -25z m49 -3 l3 -24 -11 25 -12 25 -7 -25 c-7
-22 -8 -22 -9 -4 -2 41 32 45 36 3z m48 1 c0 -27 -22 -39 -31 -16 -8 22 3 49
19 43 6 -2 12 -14 12 -27z m138 18 c6 -21 -4 -48 -19 -48 -18 0 -26 17 -19 40
7 22 31 27 38 8z m120 -25 c7 -9 5 -13 -7 -13 -11 0 -16 8 -15 28 0 15 3 21 6
12 3 -8 10 -21 16 -27z m27 19 c0 12 9 16 33 15 24 -2 33 -7 35 -23 2 -13 -4
-24 -13 -28 -21 -8 -35 1 -36 22 0 12 -3 9 -10 -7 -9 -23 -10 -24 -24 -5 -8
10 -14 26 -14 34 0 11 3 10 14 -4 12 -16 15 -17 15 -4z m99 11 c0 -5 -4 -17
-9 -28 -8 -18 -9 -17 -9 8 -1 15 4 27 9 27 6 0 10 -3 9 -7z m276 -23 c0 -27
-22 -39 -31 -16 -8 22 3 49 19 43 6 -2 12 -14 12 -27z m65 21 c1 9 5 8 15 -5
10 -13 15 -15 15 -6 0 7 2 11 5 8 3 -3 3 -12 0 -20 -6 -16 -55 -22 -55 -8 0 5
-3 17 -7 27 -6 16 -5 16 10 4 14 -11 17 -11 17 0z m144 -7 c8 -22 7 -34 -3
-34 -5 0 -11 11 -13 25 -6 28 6 34 16 9z m128 -9 c-2 -14 -8 -25 -13 -25 -14
0 -11 38 4 43 6 3 13 6 13 6 1 1 -1 -10 -4 -24z m133 15 c5 -8 11 -7 20 0 18
15 35 5 35 -20 0 -31 -22 -35 -43 -9 -20 23 -20 24 -15 2 6 -22 -16 -52 -29
-39 -9 9 -15 48 -9 63 6 16 32 17 41 3z m221 -1 c5 -8 9 -8 14 1 6 9 11 6 20
-10 6 -12 8 -25 4 -28 -4 -4 -9 -1 -11 6 -4 10 -9 10 -23 -3 -21 -19 -40 -12
-40 14 0 29 22 42 36 20z m77 3 c3 7 6 3 6 -9 1 -12 -4 -25 -10 -29 -12 -7
-29 13 -29 35 0 10 3 11 14 2 11 -9 15 -9 19 1z m54 -27 l2 -30 -8 30 c-8 29
-10 28 -24 -15 -3 -8 -6 0 -6 18 -1 27 3 33 17 30 11 -2 18 -13 19 -33z m131
-1 c3 -25 -11 -28 -14 -3 -1 5 -2 14 -3 20 0 5 -6 7 -13 3 -7 -4 -8 -3 -4 5
13 20 31 7 34 -25z m167 26 c5 -8 11 -7 20 0 18 15 35 5 35 -20 0 -23 -18 -36
-32 -22 -6 6 -16 8 -23 6 -7 -3 -14 5 -17 20 -5 26 5 35 17 16z m133 -21 c3
-22 -1 -26 -19 -25 -12 0 -24 7 -27 15 -3 10 0 12 12 8 10 -4 16 -1 16 8 0 9
-6 12 -17 8 -11 -4 -14 -3 -9 6 13 20 41 8 44 -20z m47 21 c5 -8 11 -7 21 1 7
6 21 9 29 5 21 -8 19 -43 -4 -56 -26 -13 -29 -13 -33 6 -2 13 -7 12 -25 -6
l-23 -21 0 41 c0 28 4 40 14 40 8 0 18 -5 21 -10z m428 -7 c8 21 61 16 65 -7
2 -10 0 -22 -5 -27 -14 -14 -43 0 -44 20 0 9 -7 1 -15 -16 -16 -37 -23 -42
-22 -15 1 9 -2 28 -6 42 -6 23 -6 24 7 7 12 -14 16 -15 20 -4z m97 -23 c5 0
11 8 13 18 4 13 5 12 6 -4 1 -21 -21 -39 -33 -27 -3 4 -5 18 -5 32 2 24 2 24
6 4 2 -13 8 -23 13 -23z m51 26 c-5 -6 -11 -20 -14 -31 -3 -14 -5 -10 -6 11
-1 21 4 31 14 31 9 0 11 -4 6 -11z m76 3 c14 -14 5 -49 -13 -49 -18 0 -28 24
-20 45 6 18 18 19 33 4z m251 -21 c2 -20 -1 -26 -14 -24 -20 3 -32 26 -14 26
6 0 8 -6 4 -12 -4 -7 -3 -9 1 -5 16 14 15 39 -1 33 -9 -3 -12 -1 -9 5 11 17
30 4 33 -23z m51 5 l-1 -28 -8 25 -7 25 -11 -25 -11 -25 0 28 c-1 21 4 27 19
27 15 0 20 -6 19 -27z m139 3 c6 -29 -15 -43 -35 -24 -14 14 -14 20 -3 33 16
19 34 15 38 -9z m152 5 c1 -13 3 -13 15 3 20 26 19 3 0 -34 -17 -33 -30 -40
-21 -12 3 9 1 24 -4 32 -8 13 -10 13 -10 -2 0 -21 -14 -30 -34 -22 -16 6 -22
35 -10 47 3 3 19 5 35 5 19 -1 29 -6 29 -17z m-2653 -23 c-3 -7 -5 -2 -5 12 0
14 2 19 5 13 2 -7 2 -19 0 -25z m230 0 c-3 -7 -5 -2 -5 12 0 14 2 19 5 13 2
-7 2 -19 0 -25z m810 -3 c0 -8 -4 -15 -9 -15 -4 0 -8 7 -8 15 0 8 4 15 8 15 5
0 9 -7 9 -15z m450 -17 c-3 -8 -6 -5 -6 6 -1 11 2 17 5 13 3 -3 4 -12 1 -19z
m-317 -73 c0 -8 -9 -19 -19 -25 -26 -13 -28 -13 -28 5 0 9 6 14 14 11 7 -3 13
1 13 9 0 8 5 15 10 15 6 0 10 -7 10 -15z m-2070 -30 c0 -24 -5 -35 -15 -35
-16 0 -18 12 -9 48 10 34 24 26 24 -13z m153 -9 l-4 -21 10 22 c7 16 18 21 46
20 22 -1 40 5 46 13 6 11 9 4 9 -22 l0 -36 -62 1 c-60 2 -63 3 -64 27 -1 14 1
29 3 34 9 14 21 -14 16 -38z m200 25 c2 -11 1 -23 -4 -28 -5 -5 1 -9 13 -10
18 -2 20 0 8 7 -13 9 -13 10 0 10 13 0 13 1 0 10 -13 8 -13 10 1 10 10 0 19
-10 21 -25 5 -23 3 -24 -46 -22 -40 2 -51 6 -54 20 -3 12 4 20 17 24 12 3 21
9 21 14 0 17 18 9 23 -10z m102 -3 c21 4 25 1 25 -22 0 -23 -4 -25 -34 -24
-26 1 -35 6 -38 22 -6 32 2 53 13 34 5 -10 18 -14 34 -10z m145 12 c0 -5 7
-10 15 -10 8 0 15 -6 15 -12 0 -10 2 -10 8 -1 11 18 134 13 149 -7 11 -13 12
-13 13 1 0 12 11 16 49 16 47 1 48 0 37 -23 -10 -20 -12 -21 -18 -6 -6 16 -7
16 -7 0 -1 -25 -32 -22 -38 3 -6 21 -6 21 -19 -2 -11 -21 -13 -22 -19 -6 -8
19 -26 24 -23 5 5 -23 -32 -20 -42 4 l-9 23 -7 -24 c-7 -23 -8 -24 -15 -5 -7
16 -8 17 -8 2 -1 -20 -26 -24 -37 -7 -4 8 -9 7 -15 -2 -6 -10 -9 -8 -9 9 0 12
-4 22 -10 22 -5 0 -10 -9 -10 -20 0 -25 -20 -27 -21 -2 -1 16 -2 16 -6 0 -6
-22 -19 -23 -27 -2 -10 26 -7 31 18 29 18 -2 23 1 19 11 -3 8 0 14 6 14 6 0
11 -4 11 -10z m350 -25 c0 -19 -4 -35 -10 -35 -5 0 -10 16 -10 35 0 19 5 35
10 35 6 0 10 -16 10 -35z m36 15 c9 0 14 -10 13 -27 -2 -24 -2 -25 -6 -5 -2
12 -8 22 -13 22 -5 0 -11 -10 -13 -22 -2 -13 -5 -5 -5 17 0 22 2 34 5 28 2 -7
11 -13 19 -13z m228 -24 c-3 -6 2 -2 10 8 12 15 16 16 17 5 0 -10 2 -10 6 -1
2 6 13 12 24 12 14 0 19 -7 19 -25 0 -18 -5 -25 -19 -25 -11 0 -22 6 -24 13
-4 9 -8 8 -16 -3 -11 -16 -13 -15 -29 15 -11 20 -11 20 -12 -2 0 -19 -6 -21
-50 -21 -46 -1 -50 1 -50 24 0 33 40 35 41 2 l0 -23 9 23 c5 12 16 22 25 22 8
0 15 4 15 10 0 5 9 2 19 -7 11 -9 18 -21 15 -27z m176 0 c0 -9 5 -16 10 -16 6
0 10 9 10 20 0 11 5 20 10 20 6 0 10 -11 10 -25 0 -21 -4 -24 -34 -23 -26 1
-35 6 -38 22 -3 12 -3 27 0 34 5 16 32 -11 32 -32z m172 1 c-3 -14 -1 -18 6
-13 7 4 12 14 12 23 0 10 6 14 20 10 13 -3 20 0 20 9 0 8 5 14 10 14 6 0 10
-7 10 -15 0 -8 6 -12 14 -9 11 4 13 -1 10 -18 -4 -22 -4 -23 5 -1 8 17 18 21
55 21 42 0 46 -2 46 -24 0 -22 -3 -23 -52 -22 -29 1 -59 6 -65 11 -8 6 -13 6
-13 0 0 -6 -21 -10 -47 -9 -43 1 -47 3 -46 24 2 45 3 48 12 33 5 -7 6 -22 3
-34z m-1662 -17 c5 0 11 10 13 23 4 19 4 18 6 -5 1 -22 -4 -28 -19 -28 -15 0
-20 6 -19 28 2 23 2 24 6 5 2 -13 8 -23 13 -23z m63 33 c-7 -2 -13 -13 -13
-24 0 -10 -4 -19 -10 -19 -5 0 -10 11 -10 25 0 19 5 25 23 24 12 0 16 -3 10
-6z m54 -30 c-3 -10 -5 -4 -5 12 0 17 2 24 5 18 2 -7 2 -21 0 -30z m82 10 c-2
-24 -2 -25 -6 -5 -2 12 -9 22 -14 22 -5 0 -10 -10 -10 -22 l-2 -23 -4 23 c-2
12 -8 22 -13 22 -5 0 -11 -10 -13 -22 -4 -20 -4 -19 -6 5 -1 25 2 27 34 27 32
0 35 -2 34 -27z m18 -10 c-3 -10 -5 -4 -5 12 0 17 2 24 5 18 2 -7 2 -21 0 -30z
m419 -10 c-8 -8 -12 -3 -21 27 l-7 25 17 -23 c9 -13 14 -26 11 -29z m522 24
c4 -20 -25 -34 -40 -19 -15 15 -1 44 19 40 10 -2 19 -11 21 -21z m290 -4 c2
-13 -1 -23 -7 -23 -6 0 -11 9 -11 20 0 27 -18 25 -23 -2 -4 -19 -4 -18 -6 5
-1 24 2 28 22 25 14 -2 23 -11 25 -25z m162 2 c0 -33 -39 -35 -48 -2 -6 22 -6
22 -13 -3 l-7 -25 -1 28 c-1 24 2 27 34 27 31 0 35 -3 35 -25z m320 8 c0 14 9
17 45 15 37 -1 45 -5 45 -20 0 -11 5 -16 11 -13 6 4 8 13 5 21 -3 8 -1 14 4
14 6 0 10 -11 10 -24 0 -22 -4 -24 -46 -23 -36 0 -47 4 -53 20 -7 18 -9 16
-20 -12 -18 -41 -26 -39 -28 7 -2 34 -1 36 13 18 12 -17 14 -18 14 -3z m172
-35 c-6 -6 -9 0 -9 18 0 23 1 24 9 10 7 -12 7 -21 0 -28z m3298 -123 c0 -19
-18 -38 -29 -31 -19 12 -13 42 9 42 11 0 20 -5 20 -11z m40 3 c0 -4 7 -8 15
-8 8 0 15 -7 15 -15 0 -18 -20 -20 -21 -2 0 6 -4 3 -9 -8 -8 -18 -9 -18 -10 5
-2 18 -4 20 -7 8 -2 -10 -9 -18 -15 -18 -5 0 -7 7 -4 16 3 9 6 19 6 23 0 4 7
8 15 8 8 0 15 -4 15 -9z m700 -20 c0 7 11 12 25 12 15 0 25 -6 25 -14 0 -19
-17 -29 -25 -16 -5 8 -11 8 -19 1 -13 -11 -46 18 -46 41 0 6 9 1 20 -12 11
-13 20 -18 20 -12z m627 -12 c-8 -21 -71 -14 -75 7 -2 12 3 17 18 17 13 0 18
-4 15 -11 -4 -6 2 -5 14 3 12 7 22 17 22 23 1 5 3 2 6 -8 3 -10 2 -24 0 -31z
m-947 10 c0 -6 5 -4 10 4 8 13 10 12 10 -2 0 -10 -3 -18 -7 -19 -5 0 -20 -2
-35 -4 -30 -4 -43 8 -35 29 6 16 57 9 57 -8z m130 4 c0 -5 3 -17 6 -27 5 -15
4 -15 -5 -3 -5 8 -13 11 -17 7 -4 -4 -13 -2 -21 5 -11 9 -13 8 -11 -2 2 -8 -6
-15 -17 -17 -15 -3 -16 -2 -7 5 11 7 11 10 -2 15 -27 10 -18 26 17 29 37 4 57
0 57 -12z m377 -11 c2 -12 -1 -18 -7 -14 -5 3 -10 16 -10 27 0 26 13 16 17
-13z m103 6 c0 -22 -22 -29 -35 -11 -12 15 -13 15 -18 -4 -7 -28 -22 -25 -23
4 -2 20 4 26 25 28 34 5 51 -1 51 -17z m91 7 c-10 -3 -10 -6 -1 -12 7 -4 8
-10 3 -13 -5 -3 -15 -2 -23 3 -11 7 -11 11 -1 24 7 9 18 13 24 9 8 -4 7 -8 -2
-11z m83 5 c3 4 6 0 6 -9 0 -22 -11 -29 -26 -17 -8 7 -14 7 -19 -1 -5 -8 -11
-8 -21 1 -22 18 1 40 31 29 13 -5 26 -6 29 -3z m-1096 -14 c-4 -22 -22 -20
-26 1 -2 10 3 16 13 16 10 0 15 -7 13 -17z m72 3 c0 -23 -16 -28 -31 -10 -12
14 -14 14 -20 -3 -7 -16 -8 -15 -8 5 -1 18 4 22 29 22 19 0 30 -5 30 -14z m80
0 c0 -22 -19 -30 -27 -11 -5 16 -7 16 -15 1 -10 -18 -28 -13 -28 8 0 7 15 13
35 14 25 2 35 -1 35 -12z m34 -1 c-4 -8 -10 -15 -15 -15 -5 0 -9 7 -9 15 0 8
7 15 15 15 9 0 12 -6 9 -15z m56 4 c0 -17 -13 -39 -23 -39 -6 0 -7 3 -4 6 3 4
2 15 -3 25 -8 14 -6 17 10 16 11 -1 20 -4 20 -8z m340 -3 c0 -24 -22 -31 -37
-11 -7 11 -13 13 -13 7 0 -16 -37 -15 -43 1 -4 10 8 14 44 16 38 1 49 -1 49
-13z m210 0 c0 -25 -22 -30 -37 -10 -14 19 -14 19 -11 -1 2 -13 -3 -20 -17
-23 -16 -2 -17 -1 -5 7 10 7 11 11 3 11 -7 0 -13 7 -13 15 0 11 11 15 40 15
28 0 40 -4 40 -14z m162 5 c7 11 8 9 6 -5 -4 -29 -28 -32 -27 -4 0 13 3 17 6
9 5 -11 7 -11 15 0z m188 -12 c0 -24 -23 -21 -28 4 -2 10 3 17 12 17 10 0 16
-9 16 -21z m30 6 c0 -8 -4 -15 -10 -15 -5 0 -10 7 -10 15 0 8 5 15 10 15 6 0
10 -7 10 -15z"/>
<path d="M6717 3244 c-15 -15 -7 -45 11 -42 9 2 17 12 17 22 0 20 -16 31 -28
20z"/>
<path d="M1708 2609 c-23 -36 -40 -101 -25 -96 20 6 49 65 45 94 l-3 27 -17
-25z"/>
<path d="M3056 2573 c-54 -107 -96 -293 -66 -293 23 0 96 194 106 285 8 70 -7
73 -40 8z"/>
<path d="M6135 2370 c-8 -13 9 -20 24 -11 10 6 9 10 -3 14 -8 3 -18 2 -21 -3z"/>
<path d="M6190 2365 c0 -8 5 -15 10 -15 6 0 10 7 10 15 0 8 -4 15 -10 15 -5 0
-10 -7 -10 -15z"/>
<path d="M6466 2371 c-4 -5 -2 -12 3 -15 5 -4 12 -2 15 3 4 5 2 12 -3 15 -5 4
-12 2 -15 -3z"/>
<path d="M6760 2371 c0 -6 5 -13 10 -16 6 -3 10 1 10 9 0 9 -4 16 -10 16 -5 0
-10 -4 -10 -9z"/>
<path d="M6825 2371 c-6 -11 9 -23 19 -14 9 9 7 23 -3 23 -6 0 -12 -4 -16 -9z"/>
<path d="M6925 2070 c-8 -13 4 -32 16 -25 12 8 12 35 0 35 -6 0 -13 -4 -16
-10z"/>
<path d="M7390 2060 c0 -5 4 -10 9 -10 6 0 13 5 16 10 3 6 -1 10 -9 10 -9 0
-16 -4 -16 -10z"/>
<path d="M6007 1923 c-12 -11 -8 -23 8 -23 8 0 15 7 15 15 0 16 -12 20 -23 8z"/>
<path d="M3296 1568 c-44 -68 -76 -196 -57 -227 14 -22 26 -7 45 56 10 32 27
82 37 111 11 30 19 60 19 68 0 22 -28 17 -44 -8z"/>
<path d="M5850 1765 c0 -8 5 -15 10 -15 6 0 10 7 10 15 0 8 -4 15 -10 15 -5 0
-10 -7 -10 -15z"/>
<path d="M1847 1583 c-25 -28 -65 -131 -84 -218 -17 -77 -14 -97 11 -76 29 24
100 240 94 286 -3 27 -3 27 -21 8z"/>
<path d="M1248 1502 c-10 -37 -26 -95 -35 -129 -10 -34 -15 -65 -11 -68 18
-18 106 57 131 112 8 19 6 27 -11 46 -11 12 -29 41 -39 64 l-18 43 -17 -68z"/>
<path d="M5528 1628 c9 -9 9 -15 0 -27 -10 -13 -8 -13 6 1 18 16 15 38 -7 38
-8 0 -8 -3 1 -12z"/>
<path d="M6930 1180 c0 -5 5 -10 10 -10 6 0 10 5 10 10 0 6 -4 10 -10 10 -5 0
-10 -4 -10 -10z"/>
<path d="M2120 429 c0 -24 23 -21 28 4 2 10 -3 17 -12 17 -10 0 -16 -9 -16
-21z"/>
<path d="M884 429 c-11 -18 11 -32 25 -16 9 12 8 16 -3 20 -9 4 -18 1 -22 -4z"/>
<path d="M1020 425 c0 -8 5 -15 10 -15 6 0 10 7 10 15 0 8 -4 15 -10 15 -5 0
-10 -7 -10 -15z"/>
<path d="M1286 433 c-11 -11 -6 -23 9 -23 8 0 15 4 15 9 0 13 -16 22 -24 14z"/>
<path d="M1436 431 c-4 -7 -5 -15 -2 -18 9 -9 19 4 14 18 -4 11 -6 11 -12 0z"/>
<path d="M2385 430 c-4 -6 -3 -16 3 -22 6 -6 12 -6 17 2 4 6 3 16 -3 22 -6 6
-12 6 -17 -2z"/>
<path d="M2495 429 c-10 -15 3 -25 16 -12 7 7 7 13 1 17 -6 3 -14 1 -17 -5z"/>
<path d="M3010 421 c0 -5 7 -12 16 -15 14 -5 15 -4 4 9 -14 17 -20 19 -20 6z"/>
<path d="M3800 420 c0 -19 3 -21 12 -12 9 9 9 15 0 24 -9 9 -12 7 -12 -12z"/>
<path d="M835 430 c-3 -5 -1 -10 4 -10 6 0 11 5 11 10 0 6 -2 10 -4 10 -3 0
-8 -4 -11 -10z"/>
<path d="M970 430 c0 -5 5 -10 11 -10 5 0 7 5 4 10 -3 6 -8 10 -11 10 -2 0 -4
-4 -4 -10z"/>
<path d="M1176 433 c-11 -11 -6 -23 9 -23 8 0 15 4 15 9 0 13 -16 22 -24 14z"/>
<path d="M1490 430 c0 -5 5 -10 10 -10 6 0 10 5 10 10 0 6 -4 10 -10 10 -5 0
-10 -4 -10 -10z"/>
<path d="M1950 426 c0 -9 5 -16 10 -16 6 0 10 4 10 9 0 6 -4 13 -10 16 -5 3
-10 -1 -10 -9z"/>
<path d="M2006 433 c-11 -11 -6 -23 9 -23 8 0 15 4 15 9 0 13 -16 22 -24 14z"/>
<path d="M2186 433 c-11 -11 -6 -23 9 -23 8 0 15 4 15 9 0 13 -16 22 -24 14z"/>
<path d="M2660 430 c0 -5 5 -10 11 -10 5 0 7 5 4 10 -3 6 -8 10 -11 10 -2 0
-4 -4 -4 -10z"/>
<path d="M2790 425 c0 -8 5 -15 10 -15 6 0 10 7 10 15 0 8 -4 15 -10 15 -5 0
-10 -7 -10 -15z"/>
<path d="M2850 420 c0 -19 3 -21 12 -12 9 9 9 15 0 24 -9 9 -12 7 -12 -12z"/>
<path d="M3280 420 c0 -19 3 -21 12 -12 9 9 9 15 0 24 -9 9 -12 7 -12 -12z"/>
<path d="M3445 430 c-3 -5 -1 -10 4 -10 6 0 11 5 11 10 0 6 -2 10 -4 10 -3 0
-8 -4 -11 -10z"/>
<path d="M3880 430 c0 -5 5 -10 10 -10 6 0 10 5 10 10 0 6 -4 10 -10 10 -5 0
-10 -4 -10 -10z"/>
<path d="M4005 430 c-4 -6 -3 -16 3 -22 6 -6 12 -6 17 2 4 6 3 16 -3 22 -6 6
-12 6 -17 -2z"/>
<path d="M730 274 c0 -17 22 -14 28 4 2 7 -3 12 -12 12 -9 0 -16 -7 -16 -16z"/>
<path d="M820 275 c0 -8 5 -15 10 -15 6 0 10 7 10 15 0 8 -4 15 -10 15 -5 0
-10 -7 -10 -15z"/>
<path d="M930 275 c0 -6 10 -12 22 -12 16 -2 19 0 9 6 -11 7 -11 9 0 14 8 3 4
4 -8 4 -13 -1 -23 -6 -23 -12z"/>
<path d="M1248 263 c7 -3 16 -2 19 1 4 3 -2 6 -13 5 -11 0 -14 -3 -6 -6z"/>
<path d="M1667 284 c-8 -8 1 -24 14 -24 5 0 9 7 9 15 0 15 -12 20 -23 9z"/>
<path d="M1881 274 c0 -11 3 -14 6 -6 3 7 2 16 -1 19 -3 4 -6 -2 -5 -13z"/>
<path d="M2237 269 c7 -7 15 -10 18 -7 3 3 -2 9 -12 12 -14 6 -15 5 -6 -5z"/>
<path d="M2370 275 c0 -8 5 -15 10 -15 6 0 10 7 10 15 0 8 -4 15 -10 15 -5 0
-10 -7 -10 -15z"/>
</g>
</svg>
